<?xml version="1.0" encoding="UTF-8" standalone="no"?>
<svg
   xmlns:dc="http://purl.org/dc/elements/1.1/"
   xmlns:cc="http://creativecommons.org/ns#"
   xmlns:rdf="http://www.w3.org/1999/02/22-rdf-syntax-ns#"
   xmlns:svg="http://www.w3.org/2000/svg"
   xmlns="http://www.w3.org/2000/svg"
   xmlns:sodipodi="http://sodipodi.sourceforge.net/DTD/sodipodi-0.dtd"
   xmlns:inkscape="http://www.inkscape.org/namespaces/inkscape"
   viewBox="0 0 151.7547 141.05226"
   height="141.05226"
   width="151.7547"
   xml:space="preserve"
   id="svg2"
   version="1.1"
   sodipodi:docname="regudocs.svg"
   inkscape:version="0.92.2 5c3e80d, 2017-08-06"><sodipodi:namedview
     pagecolor="#ffffff"
     bordercolor="#666666"
     borderopacity="1"
     objecttolerance="10"
     gridtolerance="10"
     guidetolerance="10"
     inkscape:pageopacity="0"
     inkscape:pageshadow="2"
     inkscape:window-width="1920"
     inkscape:window-height="1080"
     id="namedview21"
     showgrid="false"
     inkscape:zoom="1.095176"
     inkscape:cx="129.77956"
     inkscape:cy="33.766933"
     inkscape:window-x="0"
     inkscape:window-y="0"
     inkscape:window-maximized="0"
     inkscape:current-layer="svg2" /><metadata
     id="metadata8"><rdf:RDF><cc:Work
         rdf:about=""><dc:format>image/svg+xml</dc:format><dc:type
           rdf:resource="http://purl.org/dc/dcmitype/StillImage" /><dc:title></dc:title></cc:Work></rdf:RDF></metadata><defs
     id="defs6" /><g
     id="g58"
     transform="translate(-51.013299,-0.00133536)"><path
       inkscape:connector-curvature="0"
       d="m 162.21333,106.85827 h -17.328 c -1.80133,0 -3.25733,1.45933 -3.25733,3.25933 v 17.46933 H 91.569331 V 54.934667 L 123.62506,22.874668 c 1.80467,-1.804 4.72907,-1.804 6.52854,0 l 32.05973,32.059999 z M 201.41599,72.613334 130.1536,1.3533353 c -1.79947,-1.80266659 -4.72387,-1.80266659 -6.52854,0 L 52.365599,72.613334 c -1.803067,1.804 -1.803067,4.726666 0,6.529333 l 7.4964,7.495733 18.238532,-18.239733 v 68.038663 c 0,2.548 2.0688,4.61627 4.6172,4.61627 H 144.34 l 31.33866,-31.41627 V 68.398667 l 18.23867,18.239733 7.49866,-7.495733 c 1.80267,-1.802667 1.80267,-4.725333 0,-6.529333"
       style="fill:#3972c1;fill-opacity:1;fill-rule:nonzero;stroke:none;stroke-width:0.13333333"
       id="path14" /><path
       inkscape:connector-curvature="0"
       d="m 111.72653,58.300001 h 26.87213 v -5.772 h -26.87213 v 5.772"
       style="fill:#505256;fill-opacity:1;fill-rule:nonzero;stroke:none;stroke-width:0.13333333"
       id="path16" /><path
       inkscape:connector-curvature="0"
       d="m 104.68906,113.59213 h 14.19534 v -5.77146 h -14.19534 v 5.77146"
       style="fill:#505256;fill-opacity:1;fill-rule:nonzero;stroke:none;stroke-width:0.13333333"
       id="path18" /><path
       inkscape:connector-curvature="0"
       d="m 104.68906,74.784 h 45.05227 V 69.013334 H 104.68906 V 74.784"
       style="fill:#505256;fill-opacity:1;fill-rule:nonzero;stroke:none;stroke-width:0.13333333"
       id="path20" /><path
       inkscape:connector-curvature="0"
       d="m 104.68906,85.737333 h 45.05227 v -5.770666 h -45.05227 v 5.770666"
       style="fill:#505256;fill-opacity:1;fill-rule:nonzero;stroke:none;stroke-width:0.13333333"
       id="path22" /><path
       inkscape:connector-curvature="0"
       d="m 104.68906,96.692133 h 45.05227 v -5.7704 h -45.05227 v 5.7704"
       style="fill:#505256;fill-opacity:1;fill-rule:nonzero;stroke:none;stroke-width:0.13333333"
       id="path24" /></g></svg>